<?xml version="1.0" standalone="no"?>
<!DOCTYPE svg PUBLIC "-//W3C//DTD SVG 20010904//EN"
 "http://www.w3.org/TR/2001/REC-SVG-20010904/DTD/svg10.dtd">
<svg version="1.0" xmlns="http://www.w3.org/2000/svg"
 width="512.000000pt" height="512.000000pt" viewBox="0 0 512.000000 512.000000"
 preserveAspectRatio="xMidYMid meet">
<metadata>
Created by potrace 1.14, written by Peter Selinger 2001-2017
</metadata>
<g transform="translate(0.000000,512.000000) scale(0.100000,-0.100000)"
fill="#000000" stroke="none">
<path d="M2389 5106 c-2 -2 -39 -7 -82 -11 -85 -7 -90 -8 -217 -31 -152 -27
-399 -101 -517 -155 -571 -257 -980 -633 -1266 -1162 -70 -130 -183 -410 -201
-500 -3 -12 -12 -49 -21 -82 -18 -68 -51 -255 -63 -354 -9 -85 -9 -424 1 -522
9 -88 15 -122 53 -325 6 -34 63 -226 78 -264 8 -19 25 -64 39 -100 97 -253
279 -546 472 -759 256 -283 534 -482 910 -651 149 -67 452 -149 660 -179 76
-11 651 -8 700 3 17 4 65 13 109 21 158 30 354 86 471 135 17 7 44 18 60 25
497 207 973 633 1223 1095 16 30 40 73 52 95 54 95 164 381 196 510 4 17 8 35
10 40 4 20 45 216 50 248 3 17 8 165 10 327 4 311 -1 383 -48 600 -22 103
-102 355 -138 435 -127 279 -259 491 -429 685 -423 481 -978 776 -1631 865
-51 7 -475 17 -481 11z"/>
</g>
</svg>
